# xmcd
#
# Track frame offsets: 
#        150
#        22492
#        39157
#        54152
#        85435
#        103935
#        118740
#        148737
#        172260
#        198462
#        218607
#        257867
#        265270
#
# Disc length: 3737 seconds
#
# Revision: 128
# Processed by: cddbd v1.5.2PL0 Copyright (c) Steve Scherf et al.
# Submitted via: ExactAudioCopyFreeDBPlugin 1.0
#
DISCID=b90e970d,c10e970d,c50e980d,c70e970d
DTITLE=The Smashing Pumpkins / Siamese Dream
DYEAR=1993
DGENRE=Rock
TTITLE0=Cherub Rock
TTITLE1=Quiet
TTITLE2=Today
TTITLE3=Hummer
TTITLE4=Rocket
TTITLE5=Disarm
TTITLE6=Soma
TTITLE7=Geek U.S.A.
TTITLE8=Mayonaise
TTITLE9=Spaceboy
TTITLE10=Silverfuck
TTITLE11=Sweet Sweet
TTITLE12=Luna
EXTD=\nEntreprises, etc.\n\n    Phonographic Copyright (p) – Virgin Re
EXTD=cords America, Inc.\n    Copyright (c) – Virgin Records America, 
EXTD=Inc.\n    Pressed By – GZ Digital Media – VB2848\n\nCrédits\n\n  
EXTD=  Arranged By [Strings] – Billy Corgan, Butch Vig, David Ragsdale
EXTD=, Eric Remschneider\n    Bass, Vocals – D'Arcy\n    Drums – Jimmy
EXTD= Chamberlin\n    Engineer – Jeff Tomei, Mark Richardson (2)\n    
EXTD=Guitar – James Iha\n    Guitar, Mellotron, Producer, Vocals – Bil
EXTD=ly Corgan\n    Mastered By – Howie Weinberg\n    Mixed By – Alan 
EXTD=Moulder\n    Producer – Butch Vig\n    Written-By – Billy Corgan\n
EXTD=\nNotes\nContains a 20-page booklet\n\n(P) & (C) 1993 Virgin Reco
EXTD=rds America, Inc.\n\nPrinted in Holland / Made in Holland\n\nThe 
EXTD=price code PM 520 is printed on the CD, while the price code F: P
EXTD=M 538 is printed on the back cover.\nCode-Barres et Autres Identi
EXTD=fiants\n\n    Barcode (Text): 0 17046 50102 6\n    Barcode (Scann
EXTD=ed): 017046501026\n    Label Code: LC 3098\n    Rights Society: B
EXTD=IEM/STEMRA\n    Price Code (F:): PM 538\n    Price Code: PM 520\n
EXTD=    Matrix / Runout: 4650102-CD VB2848\n    Mastering SID Code: I
EXTD=FPI LD02\n    Mould SID Code: IFPI 5J82\n\n
EXTT0=
EXTT1=
EXTT2=
EXTT3=
EXTT4=
EXTT5=
EXTT6=
EXTT7=
EXTT8=
EXTT9=
EXTT10=
EXTT11=
EXTT12=
PLAYORDER=
.
